<?xml version="1.0" encoding="UTF-8"?>
<svg width="93px" height="60px" viewBox="0 0 93 60" version="1.1" xmlns="http://www.w3.org/2000/svg" xmlns:xlink="http://www.w3.org/1999/xlink">
    <!-- Generator: sketchtool 53.1 (72631) - https://sketchapp.com -->
    <title>9D452AF9-254F-48F4-8009-A555B58795C1</title>
    <desc>Created with sketchtool.</desc>
    <defs>
        <polygon id="path-1" points="0.0654827586 0.0441894737 11.8151379 0.0441894737 11.8151379 12 0.0654827586 12"></polygon>
        <polygon id="path-3" points="0 0.189605161 92.6671273 0.189605161 92.6671273 32.6133151 0 32.6133151"></polygon>
    </defs>
    <g id="Symbols" stroke="none" stroke-width="1" fill="none" fill-rule="evenodd">
        <g id="Wifi-Login-Widget" transform="translate(-141.000000, -71.000000)">
            <g id="Wifi-SVG" transform="translate(141.000000, 71.000000)">
                <g id="Group-3" transform="translate(40.800000, 48.000000)">
                    <mask id="mask-2" fill="white">
                        <use xlink:href="#path-1"></use>
                    </mask>
                    <g id="Clip-2"></g>
                    <path d="M11.8151379,6.02208421 C11.8151379,9.32376842 9.18486207,12.0001895 5.94031034,12.0001895 C2.69575862,12.0001895 0.0654827586,9.32376842 0.0654827586,6.02208421 C0.0654827586,2.72061053 2.69575862,0.0441894737 5.94031034,0.0441894737 C9.18486207,0.0441894737 11.8151379,2.72061053 11.8151379,6.02208421" id="Fill-1" fill="#002B44" mask="url(#mask-2)"></path>
                </g>
                <path d="M46.0056005,26.757044 C56.0751277,26.757044 64.880839,32.0837933 69.6032414,39.9815463 L79.2,34.6057924 C72.5579923,23.4946433 60.1706943,16 46.0056005,16 C31.8324758,16 19.439683,23.50305 12.8,34.6244511 L22.3969699,40 C27.1168363,32.0921999 35.9282537,26.757044 46.0056005,26.757044" id="Fill-4" fill="#002B44"></path>
                <g id="Group-8">
                    <mask id="mask-4" fill="white">
                        <use xlink:href="#path-3"></use>
                    </mask>
                    <g id="Clip-7"></g>
                    <path d="M46.3390473,11.2914106 C62.0218255,11.2914106 75.7361891,19.8723138 83.0897455,32.5940583 L92.6671273,27.0464145 C83.3978836,11.0078493 66.1094545,0.189562839 46.3390473,0.189562839 C26.5608364,0.189562839 9.26671273,11.0165254 0,27.0654596 L9.57738182,32.6133151 C16.9284073,19.8809899 30.6484655,11.2914106 46.3390473,11.2914106" id="Fill-6" fill="#002B44" mask="url(#mask-4)"></path>
                </g>
                <path d="M46.4053909,43.456984 C50.4984678,43.456984 54.0719031,45.6039002 55.9936049,48.781718 L65.6,43.4527182 C61.7580762,37.0907854 54.5955615,32.8 46.4053909,32.8 C38.2073982,32.8 31.0389641,37.0991138 27.2,43.4710002 L36.8057609,48.8 C38.7247144,45.6118224 42.3044919,43.456984 46.4053909,43.456984" id="Fill-9" fill="#002B44"></path>
            </g>
        </g>
    </g>
</svg>